<?xml version="1.0" encoding="UTF-8" standalone="no"?>
<!-- Created with Inkscape (http://www.inkscape.org/) -->

<svg
   xmlns:dc="http://purl.org/dc/elements/1.1/"
   xmlns:cc="http://creativecommons.org/ns#"
   xmlns:rdf="http://www.w3.org/1999/02/22-rdf-syntax-ns#"
   xmlns:svg="http://www.w3.org/2000/svg"
   xmlns="http://www.w3.org/2000/svg"
   xmlns:sodipodi="http://sodipodi.sourceforge.net/DTD/sodipodi-0.dtd"
   xmlns:inkscape="http://www.inkscape.org/namespaces/inkscape"
   width="210mm"
   height="297mm"
   viewBox="0 0 210 297"
   version="1.1"
   id="svg4783"
   inkscape:version="0.92.4 (5da689c313, 2019-01-14)"
   sodipodi:docname="icon.svg"
   inkscape:export-filename="C:\Users\hamza\work\IDEs\eclipse-SDK-4.13-win32-x86_64\eclipse\workspace\com.xatkit.profile.root\plugins\com.xatkit.profile\icons\icon.png"
   inkscape:export-xdpi="3.8644345"
   inkscape:export-ydpi="3.8644345">
  <defs
     id="defs4777" />
  <sodipodi:namedview
     id="base"
     pagecolor="#ffffff"
     bordercolor="#666666"
     borderopacity="1.0"
     inkscape:pageopacity="0.0"
     inkscape:pageshadow="2"
     inkscape:zoom="1.4"
     inkscape:cx="193.62065"
     inkscape:cy="660.0368"
     inkscape:document-units="mm"
     inkscape:current-layer="layer1"
     showgrid="false"
     inkscape:window-width="2560"
     inkscape:window-height="1377"
     inkscape:window-x="1592"
     inkscape:window-y="-8"
     inkscape:window-maximized="1" />
  <metadata
     id="metadata4780">
    <rdf:RDF>
      <cc:Work
         rdf:about="">
        <dc:format>image/svg+xml</dc:format>
        <dc:type
           rdf:resource="http://purl.org/dc/dcmitype/StillImage" />
        <dc:title />
      </cc:Work>
    </rdf:RDF>
  </metadata>
  <g
     inkscape:label="Layer 1"
     inkscape:groupmode="layer"
     id="layer1">
    <g
       id="g9340"
       transform="matrix(0.75598892,0,0,0.75598892,-34.67532,-63.677415)"
       style="stroke-width:1.32277071">
      <path
         inkscape:connector-curvature="0"
         id="path3"
         d="m 174.07714,211.57077 c -3.20748,0 -5.80768,2.6002 -5.80768,5.80781 0,3.20748 2.6002,5.80768 5.80768,5.80768 3.20747,0 5.80768,-2.6002 5.80768,-5.80768 0,-3.20761 -2.60021,-5.80781 -5.80768,-5.80781 z m 0.50879,8.73344 c -0.16923,0.0146 -0.33955,0.0146 -0.50879,0 -1.63392,-0.14045 -2.84461,-1.57889 -2.70402,-3.21281 0.12367,-1.43909 1.26493,-2.58034 2.70402,-2.70402 1.63392,-0.14058 3.07235,1.0701 3.21281,2.70402 0.14058,1.63392 -1.0701,3.07235 -2.70402,3.21281 z"
         style="fill:#ee2a14;stroke-width:6.89192247" />
      <path
         inkscape:connector-curvature="0"
         id="path5"
         d="m 211.19426,211.57077 c -3.20748,-0.012 -5.8174,2.57834 -5.82954,5.78582 -0.012,3.20761 2.57836,5.81754 5.78584,5.82953 3.20761,0.0122 5.81754,-2.57834 5.82953,-5.78582 1.1e-4,-0.007 1.1e-4,-0.0146 1.1e-4,-0.0216 0,-3.19907 -2.58701,-5.79581 -5.78595,-5.80781 z m 2.94749,5.78595 c 0.0122,1.6278 -1.2977,2.95722 -2.92563,2.96921 -0.007,1.1e-4 -0.0146,1.1e-4 -0.0219,1.1e-4 v -0.0218 c -1.63992,0.012 -2.97907,-1.30757 -2.99106,-2.94748 -0.012,-1.63992 1.3077,-2.97907 2.94749,-2.99107 1.63992,-0.012 2.97906,1.30757 2.99106,2.94749 1e-4,0.0146 1e-4,0.029 0,0.0436 z"
         style="fill:#ee2a14;stroke-width:6.89192247" />
      <path
         inkscape:connector-curvature="0"
         id="path7"
         d="m 185.93277,217.37858 c 0.0122,-7.51236 -6.06808,-13.61215 -13.58044,-13.62415 -7.51236,-0.0122 -13.61215,6.06808 -13.62414,13.58044 -0.0121,7.51237 6.06807,13.61202 13.58044,13.62415 0.007,0 0.0146,0 0.0219,0 7.4989,-0.012 13.5783,-6.08167 13.60229,-13.58044 z m -13.60229,10.7421 c -5.94481,0 -10.76396,-4.81928 -10.76396,-10.76396 0,-5.9448 4.81915,-10.76394 10.76396,-10.76394 5.9448,0 10.76395,4.81914 10.76395,10.76394 0,0.007 0,0.0146 0,0.0219 -0.012,5.93614 -4.82768,10.74209 -10.76395,10.74209 z"
         style="fill:#ee2a14;stroke-width:6.89192247" />
      <path
         inkscape:connector-curvature="0"
         id="path9"
         d="m 212.8755,203.81986 c -7.51238,0 -13.6023,6.09007 -13.6023,13.60243 0,7.51237 6.09006,13.60229 13.60243,13.60229 7.51236,-1.1e-4 13.60229,-6.09006 13.60229,-13.60242 0,-0.0146 -1.1e-4,-0.0291 -1.1e-4,-0.0436 -0.036,-7.49038 -6.11194,-13.54686 -13.60231,-13.55872 z m 10.76394,13.6023 c -0.036,5.91921 -4.84473,10.69864 -10.76394,10.69852 v 0.0437 c -5.94482,-1.2e-4 -10.76396,-4.81928 -10.76396,-10.76409 0,-5.94467 4.81914,-10.76395 10.76396,-10.76395 5.9448,0 10.76394,4.81928 10.76394,10.76409 0,0.007 0,0.0146 0,0.0216 z"
         style="fill:#ee2a14;stroke-width:6.89192247" />
      <path
         inkscape:connector-curvature="0"
         id="path11"
         d="m 199.42592,234.29962 c -2.41804,1.32076 -5.03943,2.1058 -7.79462,2.1178 -3.05742,0.0259 -6.04768,-0.89726 -8.55873,-2.64192 0.28798,-0.14752 0.58728,-0.27172 0.89525,-0.37113 0.60288,-0.17484 0.94989,-0.8053 0.77505,-1.40818 -0.17484,-0.60301 -0.80543,-0.95002 -1.40831,-0.77518 -2.11926,0.52345 -3.78969,2.15218 -4.36672,4.25758 -0.0487,0.31918 -0.0333,0.87435 0.39428,1.13263 0.84548,0.51063 1.6491,-0.49388 2.0075,-1.46019 2.93082,2.20642 6.50597,3.38792 10.1744,3.36246 3.16444,-0.005 6.2753,-0.81689 9.03914,-2.35806 0.51239,-0.31957 0.70186,-1.01613 0.34928,-1.50652 -0.69818,-0.9711 -1.50652,-0.34929 -1.50652,-0.34929 z"
         style="fill:#ee2a14;stroke-width:6.89192247" />
      <path
         inkscape:connector-curvature="0"
         id="path13"
         d="m 240.80063,210.17352 c -0.007,0 -0.0146,-1.1e-4 -0.0219,-1.1e-4 h -2.75104 v -1.06983 c 0,-9.65041 -8.55875,-17.46688 -19.0607,-17.46688 h -18.51486 v -1.09168 c 0,-2.41164 -1.95508,-4.36672 -4.36672,-4.36672 h -3.79902 c -0.57489,-2.80157 0.0508,-5.71586 1.72481,-8.03475 l 2.53264,3.12219 c 0.67486,0.81234 1.6812,0.46871 1.98693,0.21841 l 8.73344,-7.09592 c 0.60181,-0.48321 0.69803,-1.36273 0.21483,-1.96441 -0.006,-0.008 -0.0122,-0.0151 -0.0184,-0.0225 l -7.07403,-8.73347 c -0.47593,-0.60754 -1.35412,-0.71428 -1.96166,-0.23853 -0.008,0.007 -0.017,0.0135 -0.0252,0.0203 l -8.73346,7.07406 c -0.60181,0.50427 -0.6891,1.39739 -0.19657,2.00865 l 3.12219,3.8646 c -2.20975,2.74506 -3.12526,6.31141 -2.51078,9.78141 H 187.483 c -2.41177,0 -4.36672,1.95508 -4.36672,4.36672 v 1.09168 h -14.36656 c -10.50196,0 -19.0607,7.83832 -19.0607,17.46688 v 1.06983 h -2.79474 c -2.41151,-0.0241 -4.38605,1.91124 -4.41017,4.32288 -2.7e-4,0.0218 -2.7e-4,0.0438 -1.3e-4,0.0657 V 231.876 c 0,2.41177 1.95495,4.36673 4.36672,4.36673 h 2.87219 c 0.35607,9.34444 8.74997,16.85561 19.02685,16.85561 h 11.41892 c 0.1202,4.02557 -0.96721,7.99491 -3.12219,11.39707 -0.46788,0.6735 -0.40431,1.58169 0.15286,2.18337 0.91127,1.00595 2.27078,0.7861 2.27078,0.7861 8.73344,-1.83408 14.7594,-11.17879 16.83362,-14.34469 h 22.66329 c 10.50197,0 19.0607,-7.83832 19.0607,-17.46689 v 0.63314 h 2.75106 c 2.41164,0 4.36671,-1.95509 4.36671,-4.36672 v -17.35775 c 0.0122,-2.41164 -1.93308,-4.37644 -4.34486,-4.38844 z M 192.54841,171.79 l 6.55008,-5.30554 5.2837,6.55008 -6.55008,5.30555 z m -6.55008,18.71142 c 0,-0.85621 0.69403,-1.55023 1.5501,-1.55023 h 8.5806 c 0.8562,0 1.55023,0.69402 1.55023,1.55023 v 1.09168 h -11.74649 z m -39.10405,42.90295 c -0.85608,0.0122 -1.55983,-0.67217 -1.57183,-1.52811 -1.3e-4,-0.007 -1.3e-4,-0.0146 -1.3e-4,-0.022 v -17.2923 c -1.3e-4,-0.85607 0.69389,-1.55023 1.54997,-1.55037 0.007,0 2.81675,2.2e-4 2.81675,2.2e-4 v 20.39256 z m 72.0946,17.09575 H 195.0158 c -0.27141,0 -0.52329,0.14111 -0.66503,0.37256 l -2.15177,3.51375 c -2.82741,4.82568 -7.20666,8.55074 -12.42332,10.56753 1.88831,-3.08488 2.99039,-6.58607 3.2096,-10.19626 v -3.34676 c 0,-0.43069 -0.34914,-0.77982 -0.77982,-0.77982 h -13.45572 c -8.95173,0 -16.22236,-6.65923 -16.22236,-14.86868 v -26.65888 c 0,-8.20946 7.27063,-14.89053 16.22236,-14.89053 h 50.21728 c 8.95172,0 16.22235,6.68107 16.22235,14.89053 l 0.0219,26.52788 c 0,8.20946 -7.27063,14.86868 -16.22235,14.86868 z m 21.81175,-17.07389 h -2.77292 v -20.41437 h 2.75106 c 0.85621,0 1.55023,0.69403 1.55023,1.5501 l 0.0219,17.31403 c 0,0.85621 -0.69404,1.55024 -1.55024,1.55024 z"
         style="fill:#ee2a14;stroke-width:6.89192247" />
    </g>
  </g>
</svg>
